# xmcd
#
# Track frame offsets:
#	150
#	19562
#	43524
#	66435
#	93014
#	113553
#	137252
#	155023
#	182854
#	212399
#	230077
#	243056
#
# Disc length: 3530 seconds
# Revision: 0
# Processed by: cddbd v1.5.2PL0 Copyright (c) Steve Scherf et al.
# Submitted via: dBpowerAMP V12.0
#
DISCID=900dc80c
DTITLE=Duke Tumatoe - Greatest Hits Vol. 2
DYEAR=2010
DGENRE=Blues
TTITLE0=I Didn't Do It
TTITLE1=Be So Easy
TTITLE2=Dancing Burritos
TTITLE3=Enough Trouble Of My Own
TTITLE4=You've Got The Problem
TTITLE5=Kid Stuff
TTITLE6=Do It Right
TTITLE7=Pour Me A Drink
TTITLE8=Blues With A Feeling
TTITLE9=My Baby Is A Nudist
TTITLE10=Moanin' After Blues
TTITLE11=You Don't Have To Go Home
EXTD=
EXTT0=
EXTT1=
EXTT2=
EXTT3=
EXTT4=
EXTT5=
EXTT6=
EXTT7=
EXTT8=
EXTT9=
EXTT10=
EXTT11=
PLAYORDER=
